<?xml version="1.0" encoding="utf-8"?>
<!-- Generator: Adobe Illustrator 26.5.0, SVG Export Plug-In . SVG Version: 6.00 Build 0)  -->
<svg version="1.1" id="Layer_1" xmlns="http://www.w3.org/2000/svg" xmlns:xlink="http://www.w3.org/1999/xlink" x="0px" y="0px"
	 viewBox="0 0 100 100" style="enable-background:new 0 0 100 100;" xml:space="preserve">
<style type="text/css">
	.st0{fill-rule:evenodd;clip-rule:evenodd;fill:#8A1935;}
</style>
<path class="st0" d="M59.9,65.6c-0.5,0-1.3,0-2.2,0l2.1-2.1c0.6-0.6,1-1.3,1.3-2c3.8-0.6,6.8-3.9,6.8-7.9c0-4.4-3.6-8-8-8
	c-1.5,0-3,0.5-4.2,1.2c-0.1-0.6-0.4-1.1-0.6-1.6c-1.7-4.5-6.1-7.7-11.2-7.7c-6.6,0-12,5.4-12,12c0,4.6,2.6,8.6,6.4,10.6
	c0.2,1.2,0.7,2.4,1.7,3.3l2,2c-7.9-1-14.1-7.7-14.1-15.9c0-8.8,7.2-16,16-16c6,0,11.2,3.3,14,8.2c0.7-0.1,1.3-0.2,2-0.2
	c6.6,0,12,5.4,12,12C71.9,60.3,66.6,65.6,59.9,65.6z M45.7,57.9l2.2,2.2V48.3c0-1.1,0.9-2,2-2s2,0.9,2,2v11.8l2.2-2.2
	c0.8-0.8,2-0.8,2.8,0s0.8,2,0,2.8l-5.7,5.7c-0.8,0.8-2,0.8-2.8,0l-5.7-5.7c-0.8-0.8-0.8-2,0-2.8C43.6,57.1,44.9,57.1,45.7,57.9z"/>
</svg>
