<?xml version="1.0" encoding="utf-8"?>
<!-- Generator: Adobe Illustrator 26.5.0, SVG Export Plug-In . SVG Version: 6.00 Build 0)  -->
<svg version="1.1" id="Layer_1" xmlns="http://www.w3.org/2000/svg" xmlns:xlink="http://www.w3.org/1999/xlink" x="0px" y="0px"
	 viewBox="0 0 100 100" style="enable-background:new 0 0 100 100;" xml:space="preserve">
<style type="text/css">
	.st0{fill-rule:evenodd;clip-rule:evenodd;fill:#8A1935;}
</style>
<path class="st0" d="M60,65.6c-0.3,0-0.6,0-1,0c0-1.4-0.3-2.7-0.9-4c0.8,0,1.5,0,1.9,0c4.4,0,8-3.6,8-8s-3.6-8-8-8
	c-1.6,0-3.1,0.5-4.3,1.3c-1.2-5.3-6-9.3-11.7-9.3c-6.6,0-12,5.4-12,12c0,6,4.3,10.9,10,11.8c-0.6,1.2-1,2.5-1,3.9
	c-7.4-1.4-13-7.9-13-15.7c0-8.8,7.2-16,16-16c6,0,11.2,3.3,14,8.2c0.7-0.1,1.3-0.2,2-0.2c6.6,0,12,5.4,12,12S66.6,65.6,60,65.6z
	 M50,58.6l3.5,3.5c2,2,2,5.1,0,7.1c-2,2-5.1,2-7.1,0c-2-2-2-5.1,0-7.1L50,58.6z"/>
</svg>
