<?xml version="1.0" encoding="utf-8"?>
<!-- Generator: Adobe Illustrator 26.5.0, SVG Export Plug-In . SVG Version: 6.00 Build 0)  -->
<svg version="1.1" id="Layer_1" xmlns="http://www.w3.org/2000/svg" xmlns:xlink="http://www.w3.org/1999/xlink" x="0px" y="0px"
	 viewBox="0 0 100 100" style="enable-background:new 0 0 100 100;" xml:space="preserve">
<style type="text/css">
	.st0{fill-rule:evenodd;clip-rule:evenodd;fill:#8A1935;}
</style>
<path class="st0" d="M80,43.6h-4c-1.1,0-2-0.9-2-2s0.9-2,2-2h4c1.1,0,2,0.9,2,2C82,42.7,81.1,43.6,80,43.6z M72.1,30.3
	c-0.8,0.8-2,0.8-2.8,0s-0.8-2,0-2.8l2.8-2.8c0.8-0.8,2-0.8,2.8,0s0.8,2,0,2.8L72.1,30.3z M69.8,43.6H29.2c0.3-0.7,0.6-1.4,1-2h27.7
	c0,0.1,0.1,0.1,0.1,0.2c0.7-0.1,1.3-0.2,2-0.2c2.1,0,4.1,0.6,5.8,1.5l0,0c0.1-0.5,0.2-1,0.2-1.5c0-4.4-3.6-8-8-8c-2,0-3.9,0.8-5.3,2
	H36.3c2.3-1.3,4.9-2,7.7-2c1.6,0,3.1,0.2,4.5,0.7c2.2-2.8,5.6-4.7,9.5-4.7c6.6,0,12,5.4,12,12C70,42.3,69.9,43,69.8,43.6z M58,25.6
	c-1.1,0-2-0.9-2-2v-4c0-1.1,0.9-2,2-2c1.1,0,2,0.9,2,2v4C60,24.7,59.1,25.6,58,25.6z M43.9,30.3L41,27.5c-0.8-0.8-0.8-2,0-2.8
	c0.8-0.8,2-0.8,2.8,0l2.8,2.8c0.8,0.8,0.8,2,0,2.8C45.9,31.1,44.6,31.1,43.9,30.3z M33.4,37.6h21.1c0.7,0.6,1.3,1.3,1.9,2H31.5
	C32.1,38.9,32.7,38.3,33.4,37.6z M71.8,51.6H28.1c-0.1-0.7-0.1-1.3-0.1-2h43.3C71.5,50.3,71.7,51,71.8,51.6z M33.4,61.6h35.5
	c-0.7,0.8-1.4,1.4-2.3,2H36.3C35.2,63.1,34.3,62.4,33.4,61.6z M30.2,57.6h41.1c-0.2,0.7-0.6,1.4-0.9,2H31.5
	C31,59,30.6,58.3,30.2,57.6z M28.1,47.6c0.1-0.7,0.2-1.3,0.4-2h40.8c0,0.1-0.1,0.2-0.1,0.3l0,0c0.4,0.5,0.8,1.1,1.2,1.7
	C70.4,47.6,28.1,47.6,28.1,47.6z M28.5,53.6H72c0,0.7-0.1,1.3-0.2,2H29.2C28.9,55,28.7,54.3,28.5,53.6z"/>
</svg>
