<?xml version="1.0" encoding="utf-8"?>
<!-- Generator: Adobe Illustrator 26.5.0, SVG Export Plug-In . SVG Version: 6.00 Build 0)  -->
<svg version="1.1" id="Layer_1" xmlns="http://www.w3.org/2000/svg" xmlns:xlink="http://www.w3.org/1999/xlink" x="0px" y="0px"
	 viewBox="0 0 100 100" style="enable-background:new 0 0 100 100;" xml:space="preserve">
<style type="text/css">
	.st0{fill-rule:evenodd;clip-rule:evenodd;fill:#8A1935;}
</style>
<path class="st0" d="M79.9,43.6h-4c-1.1,0-2-0.9-2-2c0-1.1,0.9-2,2-2h4c1.1,0,2,0.9,2,2C81.9,42.7,81,43.6,79.9,43.6z M72.1,30.3
	c-0.8,0.8-2,0.8-2.8,0c-0.8-0.8-0.8-2,0-2.8l2.8-2.8c0.8-0.8,2-0.8,2.8,0c0.8,0.8,0.8,2,0,2.8L72.1,30.3z M69.1,45.9L69.1,45.9
	c1.7,2.1,2.8,4.8,2.8,7.7c0,5.2-3.3,9.7-8,11.3v-4.4c2.4-1.4,4-4,4-6.9c0-4.4-3.6-8-8-8c-1.6,0-3.1,0.5-4.3,1.3
	c-1.2-5.3-6-9.3-11.7-9.3c-6.6,0-12,5.4-12,12c0,3.5,1.6,6.7,4,8.9v4.9c-4.8-2.8-8-7.9-8-13.8c0-8.8,7.2-16,16-16
	c1.6,0,3.1,0.2,4.5,0.7c2.2-2.8,5.6-4.7,9.5-4.7c6.6,0,12,5.4,12,12C69.9,43.2,69.6,44.6,69.1,45.9z M57.9,33.6
	c-2.2,0-4.2,0.9-5.7,2.3c2.3,1.4,4.3,3.5,5.6,5.9c0.7-0.1,1.3-0.2,2-0.2c2.1,0,4.1,0.6,5.8,1.5l0,0c0.1-0.5,0.1-1,0.1-1.5
	C65.9,37.2,62.4,33.6,57.9,33.6z M57.9,25.6c-1.1,0-2-0.9-2-2v-4c0-1.1,0.9-2,2-2s2,0.9,2,2v4C59.9,24.7,59,25.6,57.9,25.6z
	 M43.8,30.3L41,27.5c-0.8-0.8-0.8-2,0-2.8c0.8-0.8,2-0.8,2.8,0l2.8,2.8c0.8,0.8,0.8,2,0,2.8C45.8,31.1,44.6,31.1,43.8,30.3z
	 M41.9,53.6c1.1,0,2,0.9,2,2v4c0,1.1-0.9,2-2,2s-2-0.9-2-2v-4C39.9,54.5,40.8,53.6,41.9,53.6z M41.9,65.6c1.1,0,2,0.9,2,2v4
	c0,1.1-0.9,2-2,2s-2-0.9-2-2v-4C39.9,66.5,40.8,65.6,41.9,65.6z M49.9,57.6c1.1,0,2,0.9,2,2v4c0,1.1-0.9,2-2,2s-2-0.9-2-2v-4
	C47.9,58.5,48.8,57.6,49.9,57.6z M49.9,69.6c1.1,0,2,0.9,2,2v4c0,1.1-0.9,2-2,2s-2-0.9-2-2v-4C47.9,70.5,48.8,69.6,49.9,69.6z
	 M57.9,53.6c1.1,0,2,0.9,2,2v4c0,1.1-0.9,2-2,2s-2-0.9-2-2v-4C55.9,54.5,56.8,53.6,57.9,53.6z M57.9,65.6c1.1,0,2,0.9,2,2v4
	c0,1.1-0.9,2-2,2s-2-0.9-2-2v-4C55.9,66.5,56.8,65.6,57.9,65.6z"/>
</svg>
