<?xml version="1.0" encoding="utf-8"?>
<!-- Generator: Adobe Illustrator 26.5.0, SVG Export Plug-In . SVG Version: 6.00 Build 0)  -->
<svg version="1.1" id="Layer_1" xmlns="http://www.w3.org/2000/svg" xmlns:xlink="http://www.w3.org/1999/xlink" x="0px" y="0px"
	 viewBox="0 0 100 100" style="enable-background:new 0 0 100 100;" xml:space="preserve">
<style type="text/css">
	.st0{fill-rule:evenodd;clip-rule:evenodd;fill:#8A1935;}
</style>
<g>
	<g>
		<path class="st0" d="M50,57.6c-1.1,0-2,0.9-2,2v16c0,1.1,0.9,2,2,2c1.1,0,2-0.9,2-2v-16C52,58.5,51.1,57.6,50,57.6z M58,53.6
			c-1.1,0-2,0.9-2,2v16c0,1.1,0.9,2,2,2c1.1,0,2-0.9,2-2v-16C60,54.5,59.1,53.6,58,53.6z M42,53.6c-1.1,0-2,0.9-2,2v16
			c0,1.1,0.9,2,2,2c1.1,0,2-0.9,2-2v-16C44,54.5,43.1,53.6,42,53.6z M73,38.6c0-0.8-0.1-1.5-0.2-2.2c-0.6,0.1-1.2,0.2-1.8,0.2
			c-4.4,0-8-3.6-8-8c0-0.6,0.1-1.2,0.2-1.8c-0.7-0.1-1.5-0.2-2.2-0.2c-5.2,0-9.7,3.4-11.3,8c-1.8-0.7-3.7-1-5.7-1
			c-8.8,0-16,7.2-16,16c0,5.9,3.2,11.1,8,13.8v-4.9c-2.5-2.2-4-5.4-4-8.9c0-6.6,5.4-12,12-12c5.7,0,10.4,4,11.7,9.3
			c1.2-0.8,2.7-1.3,4.3-1.3c4.4,0,8,3.6,8,8c0,3-1.6,5.5-4,6.9v4.4c4.7-1.6,8-6.1,8-11.3c0-2.6-0.8-4.9-2.2-6.9
			C71.8,44.6,73,41.8,73,38.6z M67,43.9c-2-1.4-4.4-2.3-7-2.3c-0.7,0-1.4,0.1-2,0.2c-1.2-2.1-2.8-3.8-4.7-5.2c0.8-2.9,3-5.1,5.9-5.8
			c0.9,4.9,4.7,8.7,9.6,9.6C68.5,41.7,67.9,42.9,67,43.9z"/>
	</g>
</g>
</svg>
