<?xml version="1.0" encoding="utf-8"?>
<!-- Generator: Adobe Illustrator 26.5.0, SVG Export Plug-In . SVG Version: 6.00 Build 0)  -->
<svg version="1.1" id="Layer_1" xmlns="http://www.w3.org/2000/svg" xmlns:xlink="http://www.w3.org/1999/xlink" x="0px" y="0px"
	 viewBox="0 0 100 100" style="enable-background:new 0 0 100 100;" xml:space="preserve">
<style type="text/css">
	.st0{fill-rule:evenodd;clip-rule:evenodd;fill:#8A1935;}
</style>
<path class="st0" d="M67.2,43.6c0.7-0.9,1.3-2,1.6-3.2c-4.9-0.9-8.7-4.7-9.6-9.6c-2.6,0.6-4.6,2.4-5.6,4.8H36.3c2.3-1.3,4.9-2,7.7-2
	c2,0,3.9,0.4,5.7,1c1.6-4.7,6.1-8,11.3-8c0.8,0,1.5,0.1,2.2,0.2C63.1,27.4,63,28,63,28.6c0,4.4,3.6,8,8,8c0.6,0,1.2-0.1,1.8-0.2
	c0.1,0.7,0.2,1.5,0.2,2.2c0,1.8-0.4,3.5-1.1,5H67.2z M72,53.6c0,0.7-0.1,1.3-0.2,2H29.2c-0.3-0.6-0.5-1.3-0.6-2H72z M71.3,57.6
	c-0.2,0.7-0.6,1.4-0.9,2H31.5c-0.5-0.6-1-1.3-1.4-2H71.3z M68.9,61.6c-0.7,0.8-1.4,1.4-2.3,2H36.3c-1-0.6-2-1.2-2.8-2H68.9z
	 M28.1,51.6c-0.1-0.7-0.1-1.3-0.1-2h43.3c0.2,0.6,0.4,1.3,0.5,2H28.1z M69.8,46.8c0.2,0.3,0.4,0.6,0.5,0.9H28.1
	c0.1-0.7,0.2-1.3,0.4-2h42.2C70.4,46,70.1,46.4,69.8,46.8z M66.6,43.6H29.2c0.3-0.7,0.6-1.4,1-2h27.7c0,0.1,0.1,0.1,0.1,0.2
	c0.7-0.1,1.3-0.2,2-0.2C62.4,41.6,64.7,42.4,66.6,43.6z M33.4,37.6h21.1c0.7,0.6,1.3,1.3,1.9,2H31.5C32.1,38.9,32.7,38.3,33.4,37.6z
	"/>
</svg>
