<?xml version="1.0" encoding="utf-8"?>
<!-- Generator: Adobe Illustrator 26.5.0, SVG Export Plug-In . SVG Version: 6.00 Build 0)  -->
<svg version="1.1" id="Layer_1" xmlns="http://www.w3.org/2000/svg" xmlns:xlink="http://www.w3.org/1999/xlink" x="0px" y="0px"
	 viewBox="0 0 100 100" style="enable-background:new 0 0 100 100;" xml:space="preserve">
<style type="text/css">
	.st0{fill-rule:evenodd;clip-rule:evenodd;fill:#8A1935;}
</style>
<path class="st0" d="M76.7,69.6L76.7,69.6L76,69.6h-3c-1.1,0-2-0.9-2-2c0-1.1,0.9-2,2-2h3c1.1,0,2-0.9,2-2s-0.9-2-2-2s-2-0.9-2-2
	c0-1.1,0.9-2,2-2c0.1,0,0.3,0,0.4,0c3.1,0.2,5.6,2.8,5.6,6C82,66.7,79.7,69.2,76.7,69.6z M71.3,49.6L71.3,49.6
	c0.2,0.6,0.4,1.2,0.5,1.9c-1.4-1-3.1-1.6-4.8-1.8c0,0,0,0,0,0h0c-1.4-2.4-4-4-6.9-4c-1.6,0-3.1,0.5-4.3,1.3c-1.2-5.3-6-9.3-11.7-9.3
	c-6.6,0-12,5.4-12,12l0,0c0,6.6,5.4,12,12,12c2.6,0,8.2,0,12.2,0H66c1.1,0,2-0.9,2-2c0-1.1-0.9-2-2-2s-2-0.9-2-2s0.9-2,2-2
	c0.1,0,0.3,0,0.4,0c3.1,0.2,5.6,2.8,5.6,6c0,3.1-2.3,5.6-5.2,5.9v0.1H66h-8c-4,0-11.4,0-14,0c-1.1,0-2,0.9-2,2c0,1.1,0.9,2,2,2h22
	h0.8v0.1c3,0.4,5.2,2.9,5.2,5.9c0,3.2-2.5,5.7-5.6,6c-0.1,0-0.3,0-0.4,0c-1.1,0-2-0.9-2-2s0.9-2,2-2c1.1,0,2-0.9,2-2
	c0-1.1-0.9-2-2-2H44h-0.8v-0.1c-3-0.4-5.2-2.9-5.2-5.9c0-1.1,0.3-2,0.8-2.9C32.5,62.6,28,56.6,28,49.6c0-8.8,7.2-16,16-16
	c2,0,3.9,0.4,5.7,1c1.6-4.7,6.1-8,11.3-8c0.8,0,1.5,0.1,2.2,0.2C63.1,27.4,63,28,63,28.6c0,4.4,3.6,8,8,8c0.6,0,1.2-0.1,1.8-0.2
	c0.1,0.7,0.2,1.5,0.2,2.2c0,3.1-1.2,6-3.2,8.1C70.4,47.6,70.9,48.6,71.3,49.6z M59.2,30.9c-2.9,0.7-5.2,2.9-5.9,5.8l0,0
	c1.9,1.4,3.5,3.2,4.7,5.2c0.7-0.1,1.3-0.2,2-0.2c2.6,0,5,0.8,7,2.3c0.9-1,1.5-2.2,1.8-3.5C63.9,39.5,60.1,35.7,59.2,30.9z"/>
</svg>
