<?xml version="1.0" encoding="utf-8"?>
<!-- Generator: Adobe Illustrator 26.5.0, SVG Export Plug-In . SVG Version: 6.00 Build 0)  -->
<svg version="1.1" id="Layer_1" xmlns="http://www.w3.org/2000/svg" xmlns:xlink="http://www.w3.org/1999/xlink" x="0px" y="0px"
	 viewBox="0 0 100 100" style="enable-background:new 0 0 100 100;" xml:space="preserve">
<style type="text/css">
	.st0{fill-rule:evenodd;clip-rule:evenodd;fill:#8A1935;}
</style>
<path class="st0" d="M80,43.6h-4c-1.1,0-2-0.9-2-2c0-1.1,0.9-2,2-2h4c1.1,0,2,0.9,2,2C82,42.7,81.1,43.6,80,43.6z M72.1,30.3
	c-0.8,0.8-2,0.8-2.8,0c-0.8-0.8-0.8-2,0-2.8l2.8-2.8c0.8-0.8,2-0.8,2.8,0c0.8,0.8,0.8,2,0,2.8L72.1,30.3z M69.2,45.9L69.2,45.9
	c1.8,2.1,2.8,4.8,2.8,7.7c0,5.2-3.3,9.7-8,11.3v-4.4c2.4-1.4,4-4,4-6.9c0-4.4-3.6-8-8-8c-1.6,0-3.1,0.5-4.3,1.3
	c-1.2-5.3-6-9.3-11.7-9.3c-6.6,0-12,5.4-12,12c0,1.4,0.3,2.7,0.7,4l0,0c0.7,1.9,1.8,3.6,3.3,4.9v4.9c-3.7-2.1-6.4-5.6-7.5-9.8
	c-0.3-1.3-0.5-2.6-0.5-4c0-8.8,7.2-16,16-16c1.6,0,3.1,0.2,4.5,0.7c2.2-2.8,5.6-4.7,9.5-4.7c6.6,0,12,5.4,12,12
	C70,43.2,69.7,44.6,69.2,45.9z M58,33.6c-2.2,0-4.2,0.9-5.7,2.4c2.3,1.4,4.3,3.5,5.6,5.9c0.7-0.1,1.3-0.2,2-0.2
	c2.1,0,4.1,0.6,5.8,1.5l0,0c0.1-0.5,0.2-1,0.2-1.5C66,37.2,62.4,33.6,58,33.6z M58,25.6c-1.1,0-2-0.9-2-2v-4c0-1.1,0.9-2,2-2
	s2,0.9,2,2v4C60,24.8,59.1,25.6,58,25.6z M43.9,30.3L41,27.5c-0.8-0.8-0.8-2,0-2.8c0.8-0.8,2-0.8,2.8,0l2.8,2.8c0.8,0.8,0.8,2,0,2.8
	C45.9,31.1,44.6,31.1,43.9,30.3z M31,72.6c1.1,0,2,0.9,2,2c0,1.1-0.9,2-2,2c-1.1,0-2-0.9-2-2C29,73.5,29.9,72.6,31,72.6z M41,55.6
	c0-1.1-0.1-2,1-2l0,0c1.1,0,1,0.9,1,2v24h-2l0,0l0,0c0-2.2-1.8-4-4-4v-2c1.5,0,2.9,0.6,4,1.6V55.6z M50,69.6c-1.1,0-1-0.9-1-2v-8
	c0-1.1-0.1-2,1-2s1,0.9,1,2v8C51,68.7,51.1,69.6,50,69.6z M50,73.6c1.1,0,2,0.9,2,2s-0.9,2-2,2s-2-0.9-2-2S48.9,73.6,50,73.6z
	 M58,53.6L58,53.6c1.1,0,1,0.9,1,2v18c1.8-2.4,4.7-4,8-4v2c-4.4,0-8,3.6-8,8h-2c0-0.3,0-0.5,0-0.8c-0.1-0.3,0-0.7,0-1.2v-22
	C57,54.5,56.9,53.6,58,53.6z M73,67.6c1.1,0,2,0.9,2,2c0,1.1-0.9,2-2,2s-2-0.9-2-2C71,68.5,71.9,67.6,73,67.6z"/>
</svg>
