<?xml version="1.0" encoding="utf-8"?>
<!-- Generator: Adobe Illustrator 26.5.0, SVG Export Plug-In . SVG Version: 6.00 Build 0)  -->
<svg version="1.1" id="Layer_1" xmlns="http://www.w3.org/2000/svg" xmlns:xlink="http://www.w3.org/1999/xlink" x="0px" y="0px"
	 viewBox="0 0 100 100" style="enable-background:new 0 0 100 100;" xml:space="preserve">
<style type="text/css">
	.st0{fill-rule:evenodd;clip-rule:evenodd;fill:#8A1935;}
</style>
<path class="st0" d="M69.8,46.8L69.8,46.8c0.6,0.9,1.1,1.9,1.5,2.9h0l0,0h-4.4l0,0l0,0c-1.4-2.4-4-4-6.9-4c-1.6,0-3.1,0.5-4.3,1.3
	c-1.2-5.3-6-9.3-11.7-9.3c-6.6,0-12,5.4-12,12l0,0h-4l0,0c0-8.8,7.2-16,16-16c2,0,3.9,0.4,5.7,1l0,0c1.6-4.7,6.1-8,11.3-8
	c0.8,0,1.5,0.1,2.2,0.2C63.1,27.4,63,28,63,28.6c0,4.4,3.6,8,8,8c0.6,0,1.2-0.1,1.8-0.2c0.1,0.7,0.2,1.5,0.2,2.2
	C73,41.8,71.8,44.6,69.8,46.8z M59.2,30.9c-2.9,0.7-5.2,2.9-5.9,5.8l0,0c1.9,1.4,3.5,3.2,4.7,5.2c0.7-0.1,1.3-0.2,2-0.2
	c2.6,0,5,0.8,7,2.3l0,0c0.9-1,1.5-2.2,1.8-3.5C63.9,39.5,60.1,35.7,59.2,30.9z M30,53.6h40c1.1,0,2,0.9,2,2s-0.9,2-2,2H30
	c-1.1,0-2-0.9-2-2S28.9,53.6,30,53.6z M30,61.6h40c1.1,0,2,0.9,2,2c0,1.1-0.9,2-2,2H30c-1.1,0-2-0.9-2-2S28.9,61.6,30,61.6z
	 M30,69.6h40c1.1,0,2,0.9,2,2s-0.9,2-2,2H30c-1.1,0-2-0.9-2-2S28.9,69.6,30,69.6z"/>
</svg>
