<?xml version="1.0" encoding="utf-8"?>
<!-- Generator: Adobe Illustrator 26.5.0, SVG Export Plug-In . SVG Version: 6.00 Build 0)  -->
<svg version="1.1" id="Layer_1" xmlns="http://www.w3.org/2000/svg" xmlns:xlink="http://www.w3.org/1999/xlink" x="0px" y="0px"
	 viewBox="0 0 100 100" style="enable-background:new 0 0 100 100;" xml:space="preserve">
<style type="text/css">
	.st0{fill-rule:evenodd;clip-rule:evenodd;fill:#8A1935;}
</style>
<path class="st0" d="M80,43.6h-4c-1.1,0-2-0.9-2-2c0-1.1,0.9-2,2-2h4c1.1,0,2,0.9,2,2C82,42.7,81.1,43.6,80,43.6z M72.1,30.3
	c-0.8,0.8-2,0.8-2.8,0c-0.8-0.8-0.8-2,0-2.8l2.8-2.8c0.8-0.8,2-0.8,2.8,0c0.8,0.8,0.8,2,0,2.8L72.1,30.3z M69.2,45.9L69.2,45.9
	c1.7,2.1,2.8,4.8,2.8,7.7c0,5.9-4.3,10.9-10,11.8v-4.1c3.4-0.9,6-4,6-7.7c0-4.4-3.6-8-8-8c-1.6,0-3.1,0.5-4.3,1.3
	c-1.2-5.3-6-9.3-11.7-9.3c-6.6,0-12,5.4-12,12c0,4.4,2.4,8.3,6,10.4v4.4c-5.9-2.4-10-8.1-10-14.8c0-8.8,7.2-16,16-16
	c1.6,0,3.1,0.2,4.5,0.7c2.2-2.8,5.6-4.7,9.5-4.7c6.6,0,12,5.4,12,12C70,43.2,69.7,44.6,69.2,45.9z M58,33.6c-2.2,0-4.2,0.9-5.7,2.4
	c2.3,1.4,4.3,3.5,5.6,5.9c0.7-0.1,1.3-0.2,2-0.2c2.1,0,4.1,0.6,5.8,1.5l0,0c0.1-0.5,0.1-1,0.1-1.5C66,37.2,62.4,33.6,58,33.6z
	 M58,25.6c-1.1,0-2-0.9-2-2v-4c0-1.1,0.9-2,2-2s2,0.9,2,2v4C60,24.8,59.1,25.6,58,25.6z M43.9,30.3L41,27.5c-0.8-0.8-0.8-2,0-2.8
	s2-0.8,2.8,0l2.8,2.8c0.8,0.8,0.8,2,0,2.8S44.6,31.1,43.9,30.3z M43.1,59.6c0.6-1,1.8-1.3,2.7-0.7l2.2,1.3v-2.5c0-1.1,0.9-2,2-2
	s2,0.9,2,2v2.5l2.2-1.3c1-0.6,2.2-0.2,2.7,0.7c0.6,1,0.2,2.2-0.7,2.7L54,63.6l2.2,1.3c1,0.6,1.3,1.8,0.7,2.7c-0.6,1-1.8,1.3-2.7,0.7
	L52,67.1v2.5c0,1.1-0.9,2-2,2s-2-0.9-2-2v-2.5l-2.2,1.3c-1,0.6-2.2,0.2-2.7-0.7c-0.6-1-0.2-2.2,0.7-2.7l2.2-1.3l-2.2-1.3
	C42.8,61.8,42.5,60.6,43.1,59.6z M50,65.6c1.1,0,2-0.9,2-2c0-1.1-0.9-2-2-2s-2,0.9-2,2C48,64.7,48.9,65.6,50,65.6z"/>
</svg>
