<?xml version="1.0" encoding="utf-8"?>
<!-- Generator: Adobe Illustrator 26.5.0, SVG Export Plug-In . SVG Version: 6.00 Build 0)  -->
<svg version="1.1" id="Layer_1" xmlns="http://www.w3.org/2000/svg" xmlns:xlink="http://www.w3.org/1999/xlink" x="0px" y="0px"
	 viewBox="0 0 100 100" style="enable-background:new 0 0 100 100;" xml:space="preserve">
<style type="text/css">
	.st0{fill-rule:evenodd;clip-rule:evenodd;fill:#8A1935;}
</style>
<g>
	<g>
		<path class="st0" d="M50,35.9c-7.7,0-14,6.3-14,14c0,7.7,6.3,14,14,14c7.7,0,14-6.3,14-14C64,42.1,57.7,35.9,50,35.9z M50,59.9
			c-5.5,0-10-4.5-10-10c0-5.5,4.5-10,10-10c5.5,0,10,4.5,10,10C60,55.4,55.5,59.9,50,59.9z M50,45.9c-2.2,0-4,1.8-4,4
			c0,2.2,1.8,4,4,4c2.2,0,8-4,8-4S52.2,45.9,50,45.9z M50,50.9c-0.6,0-1-0.4-1-1c0-0.6,0.4-1,1-1c0.6,0,1,0.4,1,1S50.6,50.9,50,50.9
			z"/>
	</g>
</g>
</svg>
