<?xml version="1.0" encoding="utf-8"?>
<!-- Generator: Adobe Illustrator 26.5.0, SVG Export Plug-In . SVG Version: 6.00 Build 0)  -->
<svg version="1.1" id="Layer_1" xmlns="http://www.w3.org/2000/svg" xmlns:xlink="http://www.w3.org/1999/xlink" x="0px" y="0px"
	 viewBox="0 0 100 100" style="enable-background:new 0 0 100 100;" xml:space="preserve">
<style type="text/css">
	.st0{fill-rule:evenodd;clip-rule:evenodd;fill:#8A1935;}
</style>
<g>
	<g>
		<path class="st0" d="M50,35.7c-7.7,0-14,6.3-14,14c0,7.7,6.3,14,14,14c7.7,0,14-6.3,14-14S57.7,35.7,50,35.7z M50,59.7
			c-5.5,0-10-4.5-10-10c0-5.5,4.5-10,10-10s10,4.5,10,10C60,55.3,55.5,59.7,50,59.7z M50,45.7c-2.2,0-8,4-8,4s5.8,4,8,4s4-1.8,4-4
			S52.2,45.7,50,45.7z M50,50.7c-0.6,0-1-0.4-1-1c0-0.6,0.4-1,1-1c0.6,0,1,0.4,1,1C51,50.3,50.6,50.7,50,50.7z"/>
	</g>
</g>
</svg>
