<?xml version="1.0" encoding="utf-8"?>
<!-- Generator: Adobe Illustrator 26.5.0, SVG Export Plug-In . SVG Version: 6.00 Build 0)  -->
<svg version="1.1" id="Layer_1" xmlns="http://www.w3.org/2000/svg" xmlns:xlink="http://www.w3.org/1999/xlink" x="0px" y="0px"
	 viewBox="0 0 100 100" style="enable-background:new 0 0 100 100;" xml:space="preserve">
<style type="text/css">
	.st0{fill-rule:evenodd;clip-rule:evenodd;fill:#8A1935;}
</style>
<path class="st0" d="M63,46c0-2.2-1.8-4-4-4s-4,1.8-4,4v4h8v4h-8v8h-4v-8v-4v-4c0-4.4,3.6-8,8-8s8,3.6,8,8H63z M40,52
	c-3.9,0-7-3.1-7-7s3.1-7,7-7s7,3.1,7,7S43.9,52,40,52z M40,42c-1.7,0-3,1.3-3,3s1.3,3,3,3c1.7,0,3-1.3,3-3S41.7,42,40,42z"/>
</svg>
