<?xml version="1.0" encoding="utf-8"?>
<!-- Generator: Adobe Illustrator 26.5.0, SVG Export Plug-In . SVG Version: 6.00 Build 0)  -->
<svg version="1.1" id="Layer_1" xmlns="http://www.w3.org/2000/svg" xmlns:xlink="http://www.w3.org/1999/xlink" x="0px" y="0px"
	 viewBox="0 0 100 100" style="enable-background:new 0 0 100 100;" xml:space="preserve">
<style type="text/css">
	.st0{fill-rule:evenodd;clip-rule:evenodd;fill:#8A1935;}
</style>
<path class="st0" d="M59,42c-2.2,0-4,1.8-4,4v8c0,2.2,1.8,4,4,4s4-1.8,4-4h4c0,4.4-3.6,8-8,8s-8-3.6-8-8v-8c0-4.4,3.6-8,8-8
	s8,3.6,8,8h-4C63,43.8,61.2,42,59,42z M40,52c-3.9,0-7-3.1-7-7s3.1-7,7-7c3.9,0,7,3.1,7,7S43.9,52,40,52z M40,42c-1.7,0-3,1.3-3,3
	s1.3,3,3,3c1.7,0,3-1.3,3-3S41.7,42,40,42z"/>
</svg>
