<?xml version="1.0" encoding="utf-8"?>
<!-- Generator: Adobe Illustrator 26.5.0, SVG Export Plug-In . SVG Version: 6.00 Build 0)  -->
<svg version="1.1" id="Layer_1" xmlns="http://www.w3.org/2000/svg" xmlns:xlink="http://www.w3.org/1999/xlink" x="0px" y="0px"
	 viewBox="0 0 100 100" style="enable-background:new 0 0 100 100;" xml:space="preserve">
<style type="text/css">
	.st0{fill-rule:evenodd;clip-rule:evenodd;fill:#8A1935;}
</style>
<path class="st0" d="M63,50h-1v2c0,1.7-1.3,3-3,3h-4c-1.7,0-3-1.3-3-3l-1-4c-0.3,0-0.7,0-1,0c-0.3,0-0.7,0-1,0l-1,4c0,1.7-1.3,3-3,3
	h-4c-1.7,0-3-1.3-3-3v-2h-1c-0.6,0-1-0.4-1-1v-1c0-0.6,0.4-1,1-1h1.2c0.4-1.2,1.5-2,2.8-2h5c0.9,0,1.8,0.4,2.3,1.1
	c0.5-0.1,1.1-0.1,1.6-0.1c0.6,0,1.2,0,1.7,0.1c0.5-0.7,1.4-1.1,2.3-1.1h5c1.3,0,2.4,0.8,2.8,2H63c0.6,0,1,0.4,1,1v1
	C64,49.6,63.6,50,63,50z M44.3,46.7c-0.3-0.3-0.8-0.3-1.1,0l-3.2,3.2c-0.3,0.3-0.3,0.8,0,1.1c0.3,0.3,0.8,0.3,1.1,0l3.2-3.2
	C44.6,47.4,44.6,47,44.3,46.7z M58.3,46.7c-0.3-0.3-0.8-0.3-1.1,0l-3.2,3.2c-0.3,0.3-0.3,0.8,0,1.1s0.8,0.3,1.1,0l3.2-3.2
	C58.6,47.4,58.6,47,58.3,46.7z"/>
</svg>
