<?xml version="1.0" encoding="utf-8"?>
<!-- Generator: Adobe Illustrator 26.5.0, SVG Export Plug-In . SVG Version: 6.00 Build 0)  -->
<svg version="1.1" id="Layer_1" xmlns="http://www.w3.org/2000/svg" xmlns:xlink="http://www.w3.org/1999/xlink" x="0px" y="0px"
	 viewBox="0 0 100 100" style="enable-background:new 0 0 100 100;" xml:space="preserve">
<style type="text/css">
	.st0{fill-rule:evenodd;clip-rule:evenodd;fill:#8A1935;}
</style>
<path class="st0" d="M59.7,46.7l-2,1.1c0.2,0.7,0.3,1.4,0.3,2.1c0,0.7-0.1,1.5-0.3,2.1l2,1.1c1,0.6,1.3,1.8,0.7,2.7
	c-0.6,1-1.8,1.3-2.7,0.7l-2-1.1c-1,1-2.3,1.8-3.7,2.1V60c0,1.1-0.9,2-2,2s-2-0.9-2-2v-2.3c-1.4-0.4-2.7-1.1-3.7-2.1l-2,1.1
	c-1,0.6-2.2,0.2-2.7-0.7c-0.6-1-0.2-2.2,0.7-2.7l2-1.1C42.1,51.5,42,50.7,42,50c0-0.7,0.1-1.5,0.3-2.1l-2-1.1
	c-1-0.6-1.3-1.8-0.7-2.7c0.6-1,1.8-1.3,2.7-0.7l2,1.1c1-1,2.3-1.8,3.7-2.1V40c0-1.1,0.9-2,2-2s2,0.9,2,2v2.3
	c1.4,0.4,2.7,1.1,3.7,2.1l2-1.1c1-0.6,2.2-0.2,2.7,0.7C60.9,45,60.6,46.2,59.7,46.7z M50,46c-2.2,0-4,1.8-4,4c0,2.2,1.8,4,4,4
	s4-1.8,4-4C54,47.8,52.2,46,50,46z"/>
</svg>
