<?xml version="1.0" encoding="utf-8"?>
<!-- Generator: Adobe Illustrator 26.5.0, SVG Export Plug-In . SVG Version: 6.00 Build 0)  -->
<svg version="1.1" id="Layer_1" xmlns="http://www.w3.org/2000/svg" xmlns:xlink="http://www.w3.org/1999/xlink" x="0px" y="0px"
	 viewBox="0 0 100 100" style="enable-background:new 0 0 100 100;" xml:space="preserve">
<style type="text/css">
	.st0{fill-rule:evenodd;clip-rule:evenodd;fill:#8A1935;}
</style>
<path class="st0" d="M64.1,44.6c-0.8,0.8-2,0.8-2.8,0c-0.8-0.8-0.8-2,0-2.8l2.8-2.8c0.8-0.8,2-0.8,2.8,0c0.8,0.8,0.8,2,0,2.8
	L64.1,44.6z M56.9,51.9c-1.4-2.4-4-4-6.9-4s-5.5,1.6-6.9,4h-4.4c1.6-4.7,6.1-8,11.3-8c5.2,0,9.7,3.3,11.3,8H56.9z M50,39.9
	c-1.1,0-2-0.9-2-2v-4c0-1.1,0.9-2,2-2c1.1,0,2,0.9,2,2v4C52,39,51.1,39.9,50,39.9z M35.9,44.6L33,41.7c-0.8-0.8-0.8-2,0-2.8
	c0.8-0.8,2-0.8,2.8,0l2.8,2.8c0.8,0.8,0.8,2,0,2.8C37.9,45.3,36.6,45.3,35.9,44.6z M40,55.9h20c1.1,0,2,0.9,2,2c0,1.1-0.9,2-2,2H40
	c-1.1,0-2-0.9-2-2C38,56.8,38.9,55.9,40,55.9z"/>
</svg>
