<?xml version="1.0" encoding="utf-8"?>
<!-- Generator: Adobe Illustrator 26.5.0, SVG Export Plug-In . SVG Version: 6.00 Build 0)  -->
<svg version="1.1" id="Layer_1" xmlns="http://www.w3.org/2000/svg" xmlns:xlink="http://www.w3.org/1999/xlink" x="0px" y="0px"
	 viewBox="0 0 320.6 117.9" style="enable-background:new 0 0 320.6 117.9;" xml:space="preserve">
<style type="text/css">
	.st0{enable-background:new    ;}
	.st1{fill:#FFFFFF;}
</style>
<g id="Group_1" transform="translate(-34.719 -271.767)">
	<g class="st0">
		<path class="st1" d="M91.3,338.1c-0.6,0-1.1-0.3-1.5-0.7L71,314.8v21.4c0,1.1-0.9,2-2,2c-1.1,0-2-0.9-2-2v-26.8
			c0-0.8,0.5-1.6,1.3-1.8c0.8-0.3,1.6,0,2.1,0.6l18.9,22.6v-21.3c0-1.1,0.9-2,2-2c1.1,0,2,0.9,2,2v26.8c0,0.8-0.5,1.5-1.3,1.8
			C91.8,338.1,91.5,338.1,91.3,338.1z"/>
		<path class="st1" d="M101.5,338c-1.1,0-2-0.9-2-2v-26.8c0-1.1,0.9-2,2-2c1.1,0,2,0.9,2,2v26.8C103.4,337.1,102.6,338,101.5,338z"
			/>
		<path class="st1" d="M125.7,338.7c-2.2,0-4.3-0.4-6.2-1.3c-1.9-0.8-3.6-2-5.1-3.4c-1.5-1.4-2.6-3.2-3.4-5c-0.9-2-1.2-4.1-1.2-6.2
			c0-2.1,0.4-4.2,1.2-6.2c0.8-1.9,2-3.6,3.5-5c1.5-1.5,3.2-2.6,5.1-3.4c2-0.8,4.1-1.2,6.2-1.2c3.3,0,6.4,1,9.1,2.9
			c0.9,0.6,1.1,1.8,0.5,2.7c-0.6,0.9-1.8,1.1-2.7,0.5c-2-1.4-4.3-2.2-6.8-2.2c-1.6,0-3.2,0.3-4.8,1c-1.4,0.6-2.8,1.5-3.9,2.6
			c-1.1,1.1-2,2.4-2.7,3.8c-0.6,1.5-0.9,3-0.9,4.6c0,1.6,0.3,3.2,0.9,4.6s1.5,2.7,2.6,3.8c2.3,2.3,5.3,3.6,8.6,3.6
			c1.7,0,3.4-0.4,4.9-1.1c1.2-0.6,2.4-1.4,3.4-2.3v-8.1c0-1.1,0.9-2,2-2c1.1,0,1.9,0.9,1.9,2v8.9c0,0.5-0.2,0.9-0.5,1.3
			c-1.5,1.6-3.2,2.9-5.2,3.8C130.2,338.2,128,338.7,125.7,338.7z"/>
		<path class="st1" d="M168.8,309.2V336c0,1.1-0.9,2-2,2c-1.1,0-1.9-0.9-1.9-2v-11.7h-16.8V336c0,1.1-0.9,2-2,2c-1.1,0-2-0.9-2-2
			v-26.8c0-1.1,0.9-2,2-2c1.1,0,2,0.9,2,2v11.2h16.8v-11.2c0-1.1,0.9-2,1.9-2C167.9,307.3,168.8,308.1,168.8,309.2z"/>
	</g>
	<g class="st0">
		<path class="st1" d="M199.9,309.3c0,1.1-0.9,2-2,2h-8.5v24.8c0,1.1-0.9,2-2,2c-1.1,0-2-0.9-2-2v-24.8H177c-1.1,0-2-0.9-2-2
			s0.9-2,2-2h21C199.1,307.3,199.9,308.2,199.9,309.3z"/>
		<path class="st1" d="M240.3,338h-17c-1.1,0-2-0.9-2-2v-26.8c0-1.1,0.9-2,2-2c1.1,0,1.9,0.9,1.9,2v24.8h15.1c1.1,0,2,0.9,2,2
			S241.4,338,240.3,338z"/>
	</g>
	<g class="st0">
		<path class="st1" d="M249.3,338c-1.1,0-2-0.9-2-2v-26.8c0-1.1,0.9-2,2-2c1.1,0,2,0.9,2,2v26.8C251.2,337.1,250.4,338,249.3,338z"
			/>
		<path class="st1" d="M279.7,309.3c0,1.1-0.9,2-1.9,2h-16.4v9.8h14c1.1,0,1.9,0.9,1.9,2c0,1.1-0.9,2-1.9,2h-14v11.2
			c0,1.1-0.9,2-2,2c-1.1,0-2-0.9-2-2v-26.8c0-1.1,0.9-2,2-2h18.3C278.9,307.4,279.7,308.3,279.7,309.3z"/>
		<path class="st1" d="M308.5,336c0,1.1-0.9,2-2,2h-18.6c-1.1,0-2-0.9-2-2v-26.7c0-1.1,0.9-2,2-2h18.3c1.1,0,2,0.9,2,2s-0.9,2-2,2
			h-16.3v9.4h14.4c1.1,0,1.9,0.9,1.9,2c0,1.1-0.9,2-1.9,2h-14.4v9.5h16.7C307.6,334.1,308.5,334.9,308.5,336z"/>
	</g>
	<g class="st0">
		<path class="st1" d="M120.6,364h-7.4c-0.5,0-0.9-0.4-0.9-0.8v-11.7c0-0.5,0.4-0.8,0.9-0.8c0.5,0,0.8,0.4,0.8,0.8v10.8h6.6
			c0.5,0,0.8,0.4,0.8,0.9C121.4,363.6,121.1,364,120.6,364z"/>
		<path class="st1" d="M134,363.1c0,0.5-0.4,0.9-0.9,0.9H125c-0.5,0-0.9-0.4-0.9-0.9v-11.6c0-0.5,0.4-0.8,0.9-0.8h8
			c0.5,0,0.8,0.4,0.8,0.8s-0.4,0.8-0.8,0.8h-7.1v4.1h6.3c0.5,0,0.9,0.4,0.9,0.9c0,0.5-0.4,0.8-0.9,0.8h-6.3v4.1h7.3
			C133.6,362.3,134,362.7,134,363.1z"/>
		<path class="st1" d="M147.6,351.5c0,0.5-0.4,0.8-0.8,0.8H143v10.8c0,0.5-0.4,0.8-0.9,0.8c-0.5,0-0.9-0.4-0.9-0.8v-10.8h-3.7
			c-0.5,0-0.9-0.4-0.9-0.8s0.4-0.8,0.9-0.8h9.2C147.2,350.6,147.6,351,147.6,351.5z"/>
	</g>
	<g class="st0">
		<path class="st1" d="M150.3,355.4c0.3,0,0.5-0.2,0.7-0.5s0.2-0.6,0.2-1c0,0,0-0.1,0-0.1c0,0,0-0.1,0-0.1h-0.9v-1.8h1.8v1.7
			c0,0.7-0.1,1.3-0.4,1.8s-0.7,0.8-1.3,0.9V355.4z"/>
	</g>
	<g class="st0">
		<path class="st1" d="M159,364.2c-3.7,0-4.7-1.7-4.8-1.9c-0.2-0.4-0.1-0.9,0.3-1.2c0.4-0.2,0.9-0.1,1.1,0.3c0,0,0.2,0.3,0.6,0.5
			c0.9,0.5,2,0.6,2.7,0.6c1.1,0,2-0.2,2.4-0.7c0.4-0.3,0.5-0.8,0.5-1.1c0-0.6-0.2-1.1-0.6-1.5c-0.5-0.5-1.4-0.9-2.7-1.2
			c-0.9-0.2-1.8-0.5-2.4-1c-0.5-0.4-1-0.8-1.3-1.4c-0.5-0.8-0.5-1.6-0.5-1.8c0-0.9,0.4-1.8,1.2-2.4c0.4-0.3,0.8-0.6,1.3-0.8
			c0.5-0.2,1.1-0.3,1.6-0.3c3.3,0,4.3,1.6,4.4,1.8c0.2,0.4,0.1,0.9-0.3,1.2c-0.4,0.2-0.9,0.1-1.1-0.3c0,0-0.2-0.2-0.6-0.4
			c-0.4-0.2-1.1-0.5-2.4-0.5c-0.9,0-1.5,0.3-1.8,0.6c-0.4,0.3-0.6,0.8-0.6,1.2v0c0,0.1,0,0.5,0.3,1c0.2,0.3,0.4,0.6,0.8,0.8
			c0.4,0.3,1,0.5,1.7,0.7c1.6,0.3,2.8,0.9,3.6,1.6c0.7,0.7,1.1,1.6,1.1,2.7c0,0.9-0.4,1.7-1,2.3C161.8,363.8,160.6,364.2,159,364.2z
			"/>
		<path class="st1" d="M174.8,364c-0.5,0-0.9-0.4-0.9-0.8v-11.7c0-0.5,0.4-0.8,0.9-0.8h5c0.1,0,0.5,0,1,0.1c0.7,0.2,1.4,0.6,1.9,1.1
			c0.4,0.4,0.7,0.8,0.9,1.4c0.2,0.6,0.3,1.2,0.3,2c0,1.6-0.7,2.8-2,3.6c-0.9,0.5-2.1,0.8-3.7,0.8c-0.5,0-0.9-0.4-0.9-0.9
			c0-0.5,0.4-0.8,0.9-0.8c1.2,0,2.2-0.2,2.8-0.6c0.7-0.4,1.1-1.1,1.1-2.1c0-0.7-0.1-1.2-0.4-1.7c-0.2-0.3-0.5-0.6-0.8-0.8
			c-0.6-0.4-1.2-0.4-1.3-0.4h-4.2v10.8C175.7,363.6,175.3,364,174.8,364z"/>
		<path class="st1" d="M187.6,364c-0.5,0-0.9-0.4-0.9-0.8v-11.7c0-0.5,0.4-0.8,0.9-0.8h5c0.1,0,0.5,0,1,0.1c0.7,0.2,1.4,0.6,1.9,1.1
			c0.4,0.4,0.7,0.8,0.9,1.4c0.2,0.6,0.3,1.2,0.3,2c0,1.6-0.7,2.8-2,3.6c-0.3,0.2-0.6,0.3-1,0.4c0.7,0.6,1.4,1.4,1.9,2.4
			c0.4,0.7,0.9,0.7,1,0.7c0.5-0.1,0.9,0.3,1,0.7c0.1,0.5-0.3,0.9-0.7,1c-0.1,0-0.5,0.1-1-0.1c-0.5-0.2-1.1-0.5-1.6-1.5
			c-0.6-1-1.3-1.8-2.2-2.4c-0.6-0.4-1-0.5-1.1-0.5c-0.4-0.1-0.7-0.5-0.7-0.9c0-0.4,0.4-0.8,0.9-0.8c1.2,0,2.1-0.2,2.8-0.6
			c0.7-0.4,1.1-1.1,1.1-2.1c0-0.7-0.1-1.2-0.4-1.7c-0.2-0.3-0.4-0.6-0.8-0.8c-0.6-0.3-1.2-0.4-1.3-0.4h-4.2v10.8
			C188.5,363.6,188.1,364,187.6,364z"/>
		<path class="st1" d="M210.2,363.1c0,0.5-0.4,0.9-0.8,0.9h-8.1c-0.5,0-0.9-0.4-0.9-0.9v-11.6c0-0.5,0.4-0.8,0.9-0.8h8
			c0.5,0,0.8,0.4,0.8,0.8s-0.4,0.8-0.8,0.8h-7.1v4.1h6.3c0.5,0,0.8,0.4,0.8,0.9c0,0.5-0.4,0.8-0.8,0.8h-6.3v4.1h7.3
			C209.9,362.3,210.2,362.7,210.2,363.1z"/>
		<path class="st1" d="M217.7,358.6h-3.9c-0.5,0-0.9-0.4-0.9-0.8c0-0.5,0.4-0.8,0.9-0.8h3.9c0.5,0,0.9,0.4,0.9,0.8
			C218.6,358.2,218.2,358.6,217.7,358.6z"/>
		<path class="st1" d="M228.3,364.3c-1,0-1.9-0.2-2.7-0.6c-0.8-0.3-1.6-0.8-2.2-1.5c-0.6-0.6-1.1-1.4-1.5-2.2
			c-0.4-0.9-0.5-1.8-0.5-2.7c0-0.9,0.2-1.8,0.5-2.7c0.4-0.8,0.9-1.6,1.5-2.2c0.6-0.6,1.4-1.1,2.2-1.5c0.9-0.4,1.8-0.5,2.7-0.5
			c1.4,0,2.8,0.4,4,1.3c0.4,0.3,0.5,0.8,0.2,1.2c-0.3,0.4-0.8,0.5-1.2,0.2c-0.9-0.6-1.9-1-3-1c-0.7,0-1.4,0.1-2.1,0.4
			c-0.6,0.3-1.2,0.6-1.7,1.1c-0.5,0.5-0.9,1-1.2,1.7c-0.3,0.6-0.4,1.3-0.4,2c0,0.7,0.1,1.4,0.4,2c0.3,0.6,0.6,1.2,1.1,1.7
			c1,1,2.3,1.6,3.7,1.6c0.7,0,1.5-0.2,2.1-0.5c0.5-0.3,1.1-0.6,1.5-1v-3.5c0-0.5,0.4-0.8,0.9-0.8c0.5,0,0.8,0.4,0.8,0.8v3.9
			c0,0.2-0.1,0.4-0.2,0.6c-0.6,0.7-1.4,1.3-2.3,1.6C230.2,364.1,229.3,364.3,228.3,364.3z"/>
		<path class="st1" d="M237.1,364c-0.2,0-0.4-0.1-0.5-0.2c-0.3-0.2-0.4-0.7-0.3-1.1l5.7-11.7c0.2-0.3,0.4-0.5,0.8-0.5
			s0.6,0.2,0.8,0.5l5.7,11.6c0.2,0.4,0,0.9-0.4,1.1c-0.4,0.2-0.9,0-1.1-0.4l-1.3-2.7c-0.9-0.3-1.8-0.3-2.8-0.1
			c-0.9,0.2-1.9,0.5-2.9,1c-1.7,0.9-2.9,2-3,2.1C237.5,363.9,237.3,364,237.1,364z M242.8,353.4l-3.4,7.1c0.2-0.1,0.3-0.2,0.5-0.3
			c1.1-0.6,2.3-1,3.4-1.2c0.8-0.1,1.5-0.2,2.2-0.1L242.8,353.4z"/>
		<path class="st1" d="M264.2,363.9c-0.5,0-0.8-0.4-0.8-0.8V354l-4.2,5.7c-0.2,0.2-0.4,0.3-0.7,0.3c-0.3,0-0.5-0.1-0.7-0.3l-4.2-5.7
			v9.1c0,0.5-0.4,0.8-0.8,0.8c-0.5,0-0.8-0.4-0.8-0.8v-11.7c0-0.4,0.2-0.7,0.6-0.8c0.3-0.1,0.7,0,1,0.3l5,6.9l5-6.9
			c0.2-0.3,0.6-0.4,1-0.3c0.3,0.1,0.6,0.4,0.6,0.8v11.7C265.1,363.5,264.7,363.9,264.2,363.9z"/>
		<path class="st1" d="M277.6,363.1c0,0.5-0.4,0.9-0.8,0.9h-8.1c-0.5,0-0.9-0.4-0.9-0.9v-11.6c0-0.5,0.4-0.8,0.9-0.8h8
			c0.5,0,0.8,0.4,0.8,0.8s-0.4,0.8-0.8,0.8h-7.1v4.1h6.3c0.5,0,0.8,0.4,0.8,0.9c0,0.5-0.4,0.8-0.8,0.8h-6.3v4.1h7.3
			C277.2,362.3,277.6,362.7,277.6,363.1z"/>
	</g>
	<g id="Path_1">
		<path class="st1" d="M37.7,361c-1.7,0-3-1.3-3-3v-83.2c0-1.7,1.3-3,3-3h272c1.7,0,3,1.3,3,3s-1.3,3-3,3h-269V358
			C40.7,359.7,39.4,361,37.7,361z"/>
	</g>
	<g id="Path_2">
		<path class="st1" d="M352.3,389.6h-272c-1.7,0-3-1.3-3-3s1.3-3,3-3h269v-80.2c0-1.7,1.3-3,3-3s3,1.3,3,3v83.2
			C355.3,388.3,353.9,389.6,352.3,389.6z"/>
	</g>
</g>
</svg>
